<svg height="512" viewBox="0 0 512 512" width="512" xmlns="http://www.w3.org/2000/svg"><g id="Harvest_Carrots" data-name="Harvest Carrots"><g id="Flat"><path d="m219.313 136s-45.78-15.711-46.891-15.155l-30.311 15.155h-142.111v128h142.111l30.311 15.155a7.994 7.994 0 0 0 3.578.845h152a8 8 0 0 0 8-8v-136z" fill="#ffead2"/><path d="m285.539 136a200.415 200.415 0 0 1 -139.868 129.78l26.751 13.375a7.994 7.994 0 0 0 3.578.845h152a8 8 0 0 0 8-8v-136z" fill="#faddc3"/><path d="m365.988 319.356c-1.213-.428-30.045-10.808-59.082-37.566-26.873-24.764-58.906-68.771-58.906-137.79h16c0 50.525 17.928 92.782 53.286 125.6 26.648 24.729 53.774 34.581 54.045 34.677z" fill="#49ad4d"/><path d="m304 144v-64h-16v64c0 81.938 71.449 169.237 74.49 172.913l12.329-10.2c-.708-.855-70.819-86.577-70.819-162.713z" fill="#66bb6a"/><path d="m264 64h-16l.647 80.647c-.153 50.238-18.072 92.276-53.279 124.95-26.647 24.729-53.773 34.581-54.045 34.677l2.677 7.539 2.666 7.543c1.213-.428 30.045-10.808 59.082-37.566 26.873-24.764 58.906-68.771 58.906-137.79z" fill="#66bb6a"/><path d="m248.093 305.217-32.093-225.217h16l31.907 222.783z" fill="#66bb6a"/><path d="m208 80 .654 64c0 76.085-70.017 161.743-70.818 162.714l12.329 10.2c3.04-3.677 73.835-90.976 73.835-172.914v-64z" fill="#49ad4d"/><path d="m263.907 305.217-15.814-2.434 40.093-233.217 15.814 2.434z" fill="#81c784"/><path d="m344 168h-40a24 24 0 0 1 0-48h40a24 24 0 0 1 0 48z" fill="#ffead2"/><path d="m344 208h-40a24 24 0 0 1 0-48h40a24 24 0 0 1 0 48z" fill="#ffead2"/><path d="m344 240h-40a24 24 0 0 1 0-48h40a24 24 0 0 1 0 48z" fill="#ffead2"/><path d="m328 280h-24a24 24 0 0 1 0-48h24a24 24 0 0 1 0 48z" fill="#ffead2"/><path d="m344 120a55.965 55.965 0 0 1 -27.149 48h27.149a24 24 0 0 0 0-48z" fill="#faddc3"/><path d="m344 160h-.147a59.972 59.972 0 0 1 -29.935 48h30.082a24 24 0 0 0 0-48z" fill="#faddc3"/><path d="m344 192h-.147a59.972 59.972 0 0 1 -29.935 48h30.082a24 24 0 0 0 0-48z" fill="#faddc3"/><path d="m339.458 234.917a60.007 60.007 0 0 1 -53.373 37.03 23.945 23.945 0 0 0 17.915 8.053h24a24 24 0 0 0 11.458-45.083z" fill="#faddc3"/><path d="m213.491 198.861c-.909-.891-59.462-59.478-59.462-59.478a8 8 0 0 1 .314-10.982 56.066 56.066 0 0 1 79.2 0l24.971 24.971a32 32 0 0 1 -45.019 45.489z" fill="#ffead2"/><path d="m256 296c-31.989 0-58.081 26.593-55.871 58.893 1.953 28.546 5.515 71.6 11.387 109.107l89.434.395c5.839-37.724 9.176-81.093 10.946-109.872 1.946-31.616-24.652-58.523-55.896-58.523z" fill="#f09b73"/><path d="m145.3 304.051a53.81 53.81 0 0 0 -67.257 40.617c-6.277 29.382-14.69 72.418-19.125 110.581l85 13.5c14.788-32.933 28.435-69.885 37.278-95.085a53.929 53.929 0 0 0 -35.896-69.613z" fill="#f09b73"/><path d="m373.88 473.546a8 8 0 0 1 -5.975-4.61c-14.813-32.96-28.483-69.973-37.343-95.218a53.785 53.785 0 0 1 35.9-69.6 53.084 53.084 0 0 1 42.314 5.639 54.127 54.127 0 0 1 24.939 34.965c6.26 29.3 14.653 72.235 19.094 110.359a8 8 0 0 1 -3.616 7.651c-2.564 1.654-74.872 10.888-75.313 10.814z" fill="#f09b73"/><circle cx="108" cy="204" fill="#fff7f0" r="12"/><circle cx="68" cy="172" fill="#fff7f0" r="20"/><path d="m206.617 191.993c4.056 4.056 6.687 6.685 6.874 6.868a32 32 0 0 0 50.025-39 64.1 64.1 0 0 1 -56.899 32.132z" fill="#faddc3"/><path d="m62.1 431.285c-1.193 8.086-2.273 16.128-3.184 23.964l85 13.5c12.754-28.4 24.657-59.791 33.364-84.056a132.188 132.188 0 0 1 -115.18 46.592z" fill="#e58b6c"/><path d="m207.107 431.589c1.3 10.945 2.763 21.895 4.409 32.411l89.434.395c5.207-33.642 8.423-71.765 10.314-100.034a132.254 132.254 0 0 1 -104.157 67.228z" fill="#e58b6c"/><path d="m439.344 372.145a132.219 132.219 0 0 1 -85.219 64.344c4.4 10.885 9.028 21.874 13.78 32.447a8 8 0 0 0 5.975 4.61c.441.074 72.749-9.16 75.315-10.813a8 8 0 0 0 3.616-7.651c-3.197-27.447-8.443-57.382-13.467-82.937z" fill="#e58b6c"/><g fill="#db7f5f"><path d="m142.06 359.761 40.3 10.076a53.413 53.413 0 0 0 1.843-16.031l-38.267-9.567c-10.369-2.72-13.527 13.221-3.876 15.522z"/><path d="m70.448 382.248 47.983 9.6c9.508 1.865 13.565-13.688 3.138-15.69l-48.057-9.611c-1.012 5.053-2.04 10.302-3.064 15.701z"/><path d="m164.751 418.392-51.182-10.237c-10.487-2.215-12.892 13.852-3.138 15.69l48.374 9.675c2.041-5.094 4.028-10.155 5.946-15.128z"/><path d="m438.242 366.593-47.811 9.562a8 8 0 0 0 1.56 15.845 8.11 8.11 0 0 0 1.578-.157l47.737-9.548c-1.025-5.395-2.052-10.649-3.064-15.702z"/><path d="m375.761 350.06a8 8 0 0 0 -9.7-5.821l-38.542 9.636a53.642 53.642 0 0 0 1.873 16.023l40.549-10.137a8 8 0 0 0 5.82-9.701z"/><path d="m352.95 433.569 48.619-9.724a8 8 0 1 0 -3.138-15.69l-51.431 10.286c1.922 4.973 3.909 10.034 5.95 15.128z"/><path d="m256 352a8 8 0 0 0 -8-8h-47.527a55.009 55.009 0 0 0 -.344 10.893c.113 1.653.232 3.36.356 5.107h47.515a8 8 0 0 0 8-8z"/><path d="m310.448 376h-54.448a8 8 0 0 0 0 16h53.193c.461-5.514.877-10.867 1.255-16z"/><path d="m204.543 408c.525 5.273 1.087 10.622 1.689 16h49.768a8 8 0 0 0 0-16z"/></g><path d="m357.842 477.266a48.263 48.263 0 0 0 -43.684 0c-22.6-49.17-93.383-49.912-116.316 0a48.263 48.263 0 0 0 -43.684 0c-27.872-60.266-122.158-43.699-122.158 26.734h448c0-68.077-93.327-88.881-122.158-26.734z" fill="#a1887f"/><path d="m453.74 452.3a59.994 59.994 0 0 1 -104.185 21.68 48.308 48.308 0 0 0 -35.4 3.286 63.143 63.143 0 0 0 -20.4-25.037 59.994 59.994 0 0 1 -104.2 21.751 48.308 48.308 0 0 0 -35.4 3.286c-7.649-16.539-20.3-27.278-34.635-32.719a59.833 59.833 0 0 1 -29.602 59.453h390.082c0-23.193-10.836-40.891-26.26-51.7z" fill="#9c7b70"/><path d="m504 512h-496a8 8 0 0 1 0-16h496a8 8 0 0 1 0 16z" fill="#876559"/><circle cx="68" cy="476" fill="#bcaaa4" r="12"/><circle cx="96" cy="464" fill="#bcaaa4" r="8"/><circle cx="236" cy="476" fill="#bcaaa4" r="12"/><circle cx="264" cy="464" fill="#bcaaa4" r="8"/><circle cx="388" cy="476" fill="#bcaaa4" r="12"/><circle cx="380" cy="324" fill="#f2bba5" r="12"/><circle cx="124" cy="324" fill="#f2bba5" r="12"/><circle cx="252" cy="324" fill="#f2bba5" r="12"/><circle cx="416" cy="464" fill="#bcaaa4" r="8"/><circle cx="408" cy="344" fill="#f2bba5" r="8"/><circle cx="280" cy="344" fill="#f2bba5" r="8"/><circle cx="104" cy="344" fill="#f2bba5" r="8"/><path d="m281.958 73.356a33.242 33.242 0 0 1 -17.958-4.208 33.066 33.066 0 0 1 -17.961 4.208c-7.488 22.207-38.982 30.605-56.76 16.063-14.653 13.117-40.782 7.976-49.636-9-40.623 11.421-49.012-53.2-10.08-55.066 7.39-24.48 38.752-33.674 58.088-16.611 13.116-10.983 34.538-9.164 45.258 4.491a32.6 32.6 0 0 1 31.091.478 32.613 32.613 0 0 1 31.149-.45c10.736-13.4 31.91-15.675 45.248-4.5 18.386-16.2 51.569-8.37 58.2 16.805 14 1.256 25.4 13.66 25.4 27.89 0 17.669-18.623 31.617-35.611 26.908-8.979 17.347-35.357 21.731-49.628 9.058-18.491 15.14-49.42 5.918-56.8-16.066z" fill="#81c784"/><path d="m398.6 25.565c-4.263-16.181-19.5-25.18-34.717-25.254a128.291 128.291 0 0 1 -73.991 85.6c12.485 12.309 34.453 15.312 48.869 3.51 14.271 12.673 40.649 8.289 49.628-9.059 16.988 4.71 35.611-9.238 35.611-26.907 0-14.23-11.4-26.634-25.4-27.89z" fill="#66bb6a"/><circle cx="160" cy="40" fill="#c8e6c9" r="16"/><circle cx="192.254" cy="61.566" fill="#c8e6c9" r="8"/></g></g></svg>