<svg id="Capa_1" enable-background="new 0 0 512 512" height="512" viewBox="0 0 512 512" width="512" xmlns="http://www.w3.org/2000/svg"><g><path d="m256 22c-135.31 0-245 109.69-245 245 0 81.921 40.215 154.44 101.971 198.922l1-.513v-179.308c0-6.341 5.159-11.5 11.5-11.5s11.5 5.159 11.5 11.5v193.878l1 1.754c31.58 17.395 67.403 28.037 105.529 29.953l1-.952v-105.66c7.906-1.078 15.632-3.095 23-6.005v111.665l1 .952c29.143-1.465 56.942-8.024 82.529-18.801l1-1.512v-129.04c0-6.341 5.159-11.5 11.5-11.5s11.5 5.159 11.5 11.5v117.696l1 .586c74.586-42.001 124.971-121.918 124.971-213.615 0-135.31-109.69-245-245-245z" fill="#ffe5c2"/><g><g><g><path d="m329.101 333.981c-.926-.926-1.878-1.81-2.832-2.69-4.414 16.846-13.25 32.396-25.669 44.815-2.865 2.865-5.877 5.531-9.017 7.994 17.495 14.526 38.95 21.84 60.446 21.954v-35.229c-4.557-13.463-12.197-26.113-22.928-36.844z" fill="#8bc727"/></g><g fill="#81b823"><path d="m298.894 377.762c-2.349 2.241-4.786 4.358-7.31 6.338 17.495 14.526 38.95 21.84 60.446 21.954v-10.32c-18.711-.529-37.278-6.517-53.136-17.972z"/><path d="m316.619 355.012c-2.511 4.429-5.361 8.67-8.539 12.675l43.949 43.949v-21.214z"/></g></g><g><path d="m466.815 321.922c-24.883-.336-49.872 8.986-68.858 27.972-10.731 10.731-18.37 23.38-22.927 36.843v35.231c24.281-.129 48.522-9.427 67.048-27.953 18.986-18.986 28.308-43.975 27.972-68.858-.025-1.783-1.454-3.211-3.235-3.235z" fill="#8bc727"/><g fill="#81b823"><path d="m383.971 394.769c4.558-13.463 12.197-26.112 22.927-36.843 17.518-17.518 40.146-26.788 63.086-27.856.062-1.638.087-3.276.065-4.915-.024-1.781-1.453-3.21-3.234-3.234-24.883-.336-49.872 8.986-68.858 27.972-10.731 10.731-18.37 23.38-22.927 36.843v35.231c2.985-.016 5.969-.174 8.942-.467v-26.731z"/><path d="m437.219 354.753c-2.929-2.929-7.677-2.93-10.607 0l-51.582 51.582v21.214l62.189-62.189c2.928-2.929 2.928-7.678 0-10.607z"/></g></g></g><g><path d="m363.529 349.833c-6.904 0-12.5 5.596-12.5 12.5v130.551c8.596-3.621 16.936-7.729 25-12.27v-118.281c0-6.903-5.596-12.5-12.5-12.5z" fill="#78a91f"/></g><path d="m243.5 404.196v107.489c4.141.208 8.308.315 12.5.315s8.359-.107 12.5-.315v-114.099c-7.955 3.283-16.347 5.508-25 6.61z" fill="#81b823"/><g><g><path d="m113.971 301.258c-4.558-13.463-12.197-26.112-22.927-36.843-18.987-18.986-43.976-28.308-68.858-27.972-1.781.024-3.21 1.453-3.234 3.234-.336 24.883 8.986 49.872 27.972 68.858 18.526 18.526 42.767 27.823 67.048 27.953v-35.23z" fill="#8bc727"/><g fill="#81b823"><path d="m62.981 308.536c-18.986-18.986-28.308-43.976-27.972-68.858.013-.965.447-1.817 1.117-2.408-4.624-.614-9.284-.89-13.941-.827-1.781.024-3.21 1.453-3.234 3.234-.336 24.883 8.986 49.872 27.972 68.858 18.526 18.526 42.767 27.823 67.048 27.953v-1.462c-18.674-3.264-36.566-12.067-50.99-26.49z"/><path d="m113.971 320.856-51.582-51.581c-2.93-2.929-7.678-2.929-10.607 0s-2.929 7.678 0 10.606l62.189 62.188z"/></g></g><g><g><path d="m229.895 276.757c1.475-6.971 2.192-14.071 2.096-21.167-.024-1.781-1.453-3.21-3.234-3.234-23.268-.314-46.626 7.82-65.084 24.401z" fill="#8bc727"/><path d="m228.757 260.599c1.424.019 2.609.942 3.045 2.219.153-2.406.222-4.817.189-7.228-.024-1.781-1.453-3.21-3.234-3.234-23.268-.314-46.626 7.82-65.084 24.401h10.592c16.411-11.024 35.48-16.415 54.492-16.158z" fill="#81b823"/><path d="m158.322 281.951c-9.903 10.375-17.021 22.429-21.351 35.221v35.229c23.877-.127 47.704-9.141 66.107-27.057-18.91-9.152-34.799-24.23-44.756-43.393z" fill="#8bc727"/><path d="m149 317.173c3.211-9.485 7.959-18.563 14.234-26.854-1.76-2.696-3.411-5.479-4.912-8.368-9.903 10.375-17.021 22.429-21.351 35.221v35.229c4.021-.021 8.037-.317 12.029-.842z" fill="#81b823"/></g><path d="m171.95 301.79-34.979 34.98v21.214l45.757-45.758c-3.837-3.196-7.448-6.677-10.778-10.436z" fill="#81b823"/></g></g><g><path d="m411.792 206.417c-7.419-7.419-19.447-7.419-26.865 0l-57.343 57.343c10.807 4.171 18.496 14.662 18.496 26.922 0 3.387-.592 6.637-1.668 9.659.742-.551 1.463-1.141 2.136-1.814l65.245-65.245c7.418-7.418 7.418-19.446-.001-26.865z" fill="#fe646f"/></g><g><path d="m429.729 275.757h-87.818c2.645 4.357 4.169 9.467 4.169 14.926 0 9.3-4.427 17.581-11.28 22.86.871.122 1.753.207 2.658.207h92.271c10.491 0 18.997-8.505 18.997-18.997 0-10.491-8.506-18.996-18.997-18.996z" fill="#fd8087"/></g><g><path d="m288.375 290.683c0-5.459 1.524-10.569 4.169-14.926h-135.178c-1.467 0-2.434 1.527-1.814 2.857 15.864 34.02 50.362 57.602 90.375 57.602 22.118 0 42.543-7.216 59.075-19.407-9.813-4.611-16.627-14.586-16.627-26.126z" fill="#8d9ca8"/></g><g><path d="m189.191 295.398c-.62-1.33.347-2.857 1.814-2.857h96.434c-.038-.615-.063-1.234-.063-1.858 0-5.439 1.462-10.534 4.004-14.926h-134.014c-1.467 0-2.434 1.527-1.814 2.857 12.176 26.111 35.335 46.058 63.534 53.928-12.73-9.736-23.05-22.465-29.895-37.144z" fill="#7a8c98"/></g><g><g><path d="m244.5 194.957c-4.748-17.695-14.057-34.421-27.943-48.307-21.477-21.476-49.743-32.021-77.889-31.64-2.015.027-3.631 1.643-3.658 3.658-.381 28.146 10.164 56.413 31.64 77.889 21.466 21.466 49.716 32.01 77.85 31.641z" fill="#8bc727"/><path d="m183.65 196.557c-21.476-21.477-32.021-49.743-31.64-77.889.016-1.161.569-2.178 1.412-2.846-4.897-.603-9.827-.879-14.754-.812-2.015.027-3.631 1.643-3.658 3.658-.381 28.146 10.164 56.413 31.64 77.889 21.466 21.466 49.716 32.01 77.85 31.641v-1.119c-22.265-3.223-43.718-13.39-60.85-30.522z" fill="#81b823"/><path d="m244.5 213.893-61.051-61.051c-2.93-2.929-7.678-2.929-10.607 0s-2.929 7.678 0 10.606l71.658 71.658z" fill="#78a91f"/></g><g><path d="m375.99 136.668c-.027-2.015-1.643-3.631-3.658-3.658-28.146-.381-56.413 10.164-77.889 31.64-12.969 12.969-21.945 28.417-26.943 44.817v36.732c27.802.11 55.637-10.43 76.85-31.642 21.476-21.476 32.021-49.743 31.64-77.889z" fill="#8bc727"/><path d="m276 221.267c4.998-16.4 13.973-31.847 26.943-44.817 20.194-20.194 46.391-30.72 72.846-31.589.169-2.728.238-5.461.201-8.193-.027-2.015-1.643-3.631-3.658-3.658-28.146-.381-56.413 10.164-77.889 31.64-12.969 12.969-21.945 28.417-26.943 44.817v36.732c2.835.011 5.671-.094 8.5-.305z" fill="#81b823"/><path d="m338.158 170.842c-2.93-2.929-7.678-2.929-10.607 0l-60.051 60.051v21.214l70.658-70.658c2.929-2.929 2.929-7.678 0-10.607z" fill="#78a91f"/></g></g><g><g><path d="m376.99 3.668c-.027-2.015-1.643-3.631-3.658-3.658-28.146-.381-56.413 10.164-77.889 31.64-13.886 13.886-23.195 30.612-27.943 48.307v33.24c28.133.37 56.383-10.174 77.85-31.641 21.476-21.475 32.021-49.742 31.64-77.888z" fill="#8bc727"/><g fill="#81b823"><path d="m276 88.75c4.748-17.695 14.057-34.421 27.943-48.307 20.231-20.231 46.488-30.757 72.993-31.593.059-1.727.078-3.455.054-5.182-.027-2.015-1.643-3.631-3.658-3.658-28.146-.381-56.413 10.164-77.889 31.64-13.886 13.886-23.195 30.612-27.943 48.307v33.24c2.835.037 5.67-.042 8.5-.226z"/><path d="m339.158 37.842c-2.93-2.929-7.678-2.929-10.607 0l-61.051 61.051v21.214l71.658-71.658c2.929-2.929 2.929-7.678 0-10.607z"/></g></g><g><path d="m244.5 76.467c-4.998-16.4-13.973-31.847-26.943-44.817-21.477-21.476-49.743-32.021-77.889-31.64-2.015.027-3.631 1.643-3.658 3.658-.381 28.146 10.164 56.413 31.64 77.889 21.212 21.212 49.048 31.752 76.85 31.642z" fill="#8bc727"/><g fill="#81b823"><path d="m184.65 81.557c-21.476-21.477-32.021-49.743-31.64-77.889.016-1.161.569-2.177 1.412-2.846-4.897-.603-9.827-.879-14.754-.812-2.015.027-3.631 1.643-3.658 3.658-.381 28.146 10.164 56.413 31.64 77.889 21.212 21.212 49.048 31.752 76.85 31.642v-1.276c-21.907-3.378-42.975-13.491-59.85-30.366z"/><path d="m244.5 97.893-60.051-60.051c-2.93-2.929-7.678-2.929-10.607 0s-2.929 7.678 0 10.606l70.658 70.658z"/></g></g></g><path d="m268.5 325.533v-268.033c0-6.904-5.596-12.5-12.5-12.5s-12.5 5.596-12.5 12.5v293.033z" fill="#78a91f"/><g><path d="m243.5 144.167h25v103.333h-25z" fill="#81b823"/></g><path d="m243.5 404.196v50.804h25v-57.414c-7.955 3.283-16.347 5.508-25 6.61z" fill="#81b823"/><g><path d="m125.471 273.601c-6.904 0-12.5 5.596-12.5 12.5v179.822c7.987 5.753 16.333 11.036 25 15.81v-195.632c0-6.904-5.597-12.5-12.5-12.5z" fill="#78a91f"/></g><g><path d="m317.228 319.535c-11.913 0-22.162-7.258-26.56-17.584l-94.734 94.734c-1.037 1.038-.641 2.801.738 3.303 35.274 12.838 76.342 5.119 104.636-23.175 16.858-16.858 26.408-38.252 28.662-60.253-3.846 1.902-8.17 2.975-12.742 2.975z" fill="#596c76"/></g><g><path d="m238.439 387.831 68.96-68.96c-7.831-2.73-14.172-8.626-17.493-16.159l-93.972 93.972c-1.037 1.038-.641 2.801.738 3.303 24.388 8.876 51.543 7.919 75.333-2.864-11.13-.149-22.24-2.136-32.828-5.989-1.378-.501-1.775-2.265-.738-3.303z" fill="#465a61"/></g><g><g><circle cx="317.227" cy="290.683" fill="#b6c4cf" r="29.852"/></g><g><path d="m309.296 290.683c0-12.616 7.83-23.396 18.892-27.766-3.394-1.341-7.089-2.086-10.96-2.086-16.487 0-29.852 13.365-29.852 29.852s13.365 29.852 29.852 29.852c3.871 0 7.566-.745 10.96-2.086-11.063-4.37-18.892-15.15-18.892-27.766z" fill="#9facba"/></g></g></g></svg>